<svg width="32" height="32" viewBox="0 0 32 32" fill="none" xmlns="http://www.w3.org/2000/svg">
<path fill-rule="evenodd" clip-rule="evenodd" d="M8 0C3.58172 0 0 3.58172 0 8V24C0 28.4183 3.58172 32 8 32H24C28.4183 32 32 28.4183 32 24V8C32 3.58172 28.4183 0 24 0H8ZM17.3943 6.36201C17.6154 6.49867 17.75 6.74007 17.75 7V10.5986L23.416 14.376C23.6247 14.5151 23.75 14.7492 23.75 15V24.25H25C25.4142 24.25 25.75 24.5858 25.75 25C25.75 25.4142 25.4142 25.75 25 25.75H23.0017L23 25.75L22.9983 25.75H17H9H7C6.58579 25.75 6.25 25.4142 6.25 25C6.25 24.5858 6.58579 24.25 7 24.25H8.25V11C8.25 10.7159 8.4105 10.4562 8.66459 10.3292L16.6646 6.32918C16.8971 6.21293 17.1732 6.22536 17.3943 6.36201ZM22.25 24.25V15.4014L17.75 12.4014V24.25H22.25ZM16.25 10.9884C16.2499 10.9957 16.2499 11.003 16.25 11.0103V24.25H9.75V11.4635L16.25 8.21353V10.9884ZM13 12.25C13.4142 12.25 13.75 12.5858 13.75 13V13.01C13.75 13.4242 13.4142 13.76 13 13.76C12.5858 13.76 12.25 13.4242 12.25 13.01V13C12.25 12.5858 12.5858 12.25 13 12.25ZM13.75 16C13.75 15.5858 13.4142 15.25 13 15.25C12.5858 15.25 12.25 15.5858 12.25 16V16.01C12.25 16.4242 12.5858 16.76 13 16.76C13.4142 16.76 13.75 16.4242 13.75 16.01V16ZM13 18.25C13.4142 18.25 13.75 18.5858 13.75 19V19.01C13.75 19.4242 13.4142 19.76 13 19.76C12.5858 19.76 12.25 19.4242 12.25 19.01V19C12.25 18.5858 12.5858 18.25 13 18.25ZM13.75 22C13.75 21.5858 13.4142 21.25 13 21.25C12.5858 21.25 12.25 21.5858 12.25 22V22.01C12.25 22.4242 12.5858 22.76 13 22.76C13.4142 22.76 13.75 22.4242 13.75 22.01V22Z" fill="#A67E59"/>
</svg>
